<?xml version="1.0" encoding="iso-8859-1"?>
<!-- Generator: Adobe Illustrator 19.0.0, SVG Export Plug-In . SVG Version: 6.00 Build 0)  -->
<svg version="1.1" id="Layer_1" xmlns="http://www.w3.org/2000/svg" xmlns:xlink="http://www.w3.org/1999/xlink" x="0px" y="0px"
	 viewBox="0 0 508.1 508.1" style="enable-background:new 0 0 508.1 508.1;" xml:space="preserve">
<path style="fill:#FFD15C;" d="M486.8,0H21.2C9.5,0,0,9.5,0,21.2v465.7c0,11.7,9.5,21.2,21.2,21.2h465.7c11.7,0,21.2-9.5,21.2-21.2
	V21.2C508,9.5,498.5,0,486.8,0z"/>
<rect x="138.6" y="207.4" style="fill:#FFFFFF;" width="230.9" height="93.2"/>
<g>
	<polygon style="fill:#FF7058;" points="204.9,137.1 229.4,112.5 254,137.1 278.6,112.5 303.1,137.1 326.9,113.3 326.9,0 181.1,0 
		181.1,113.3 	"/>
	<polygon style="fill:#FF7058;" points="103.9,430.5 71.7,398.3 39.5,430.5 59.4,430.5 59.4,468.5 84,468.5 84,430.5 	"/>
	<polygon style="fill:#FF7058;" points="176.8,430.5 144.6,398.3 112.4,430.5 132.3,430.5 132.3,468.5 156.9,468.5 156.9,430.5 	"/>
</g>
<g>
	<rect x="154.3" y="220.3" style="fill:#334A5E;" width="13.7" height="67.4"/>
	<rect x="206.2" y="220.3" style="fill:#334A5E;" width="13.7" height="67.4"/>
	<rect x="288.1" y="220.3" style="fill:#334A5E;" width="13.7" height="67.4"/>
	<rect x="176.1" y="220.3" style="fill:#334A5E;" width="6.9" height="55.5"/>
	<rect x="191.2" y="220.3" style="fill:#334A5E;" width="6.9" height="55.5"/>
	<rect x="340" y="220.3" style="fill:#334A5E;" width="13.7" height="67.4"/>
	<rect x="310" y="220.3" style="fill:#334A5E;" width="6.9" height="55.5"/>
	<rect x="325" y="220.3" style="fill:#334A5E;" width="6.9" height="55.5"/>
	<rect x="228" y="220.3" style="fill:#334A5E;" width="6.9" height="55.5"/>
	<rect x="243.1" y="220.3" style="fill:#334A5E;" width="6.9" height="55.5"/>
	<rect x="258.1" y="220.3" style="fill:#334A5E;" width="6.9" height="55.5"/>
	<rect x="273.1" y="220.3" style="fill:#334A5E;" width="6.9" height="55.5"/>
</g>
<g>
</g>
<g>
</g>
<g>
</g>
<g>
</g>
<g>
</g>
<g>
</g>
<g>
</g>
<g>
</g>
<g>
</g>
<g>
</g>
<g>
</g>
<g>
</g>
<g>
</g>
<g>
</g>
<g>
</g>
</svg>
